999
"DXF R12 Output" (www.mydxf.blogspot.com)
 0 
SECTION
 2 
HEADER
 9 
$ACADVER
 1 
AC1009
 9 
$EXTMIN
 10 
 0 
 20 
 0 
 9 
$EXTMAX
 10 
 8.5 
 20 
 11 
 0 
ENDSEC
 0 
SECTION
 2 
ENTITIES
0
LINE
8
Layer 1
10
3.000000
20
23.188100
11
-3.000000
21
17.188100
0
LINE
8
Layer 1
10
0.000000
20
25.188100
11
0.000000
21
15.188100
0
LINE
8
Layer 1
10
8.000000
20
16.188100
11
4.000000
21
12.188100
0
LINE
8
Layer 1
10
6.000000
20
18.188100
11
2.000000
21
14.188100
0
LINE
8
Layer 1
10
4.000000
20
20.188100
11
0.000000
21
16.188100
0
LINE
8
0
10
17.589243
20
19.310880
11
17.489291
21
19.683906
0
LINE
8
0
10
17.489291
20
19.683906
11
17.216217
21
19.956980
0
LINE
8
0
10
17.216217
20
19.956980
11
16.843191
21
20.056932
0
LINE
8
0
10
16.843191
20
20.056932
11
16.470164
21
19.956980
0
LINE
8
0
10
16.470164
20
19.956980
11
16.197090
21
19.683906
0
LINE
8
0
10
16.197090
20
19.683906
11
16.097138
21
19.310880
0
LINE
8
0
10
16.097138
20
19.310880
11
16.197090
21
18.937854
0
LINE
8
0
10
16.197090
20
18.937854
11
16.470164
21
18.664780
0
LINE
8
0
10
16.470164
20
18.664780
11
16.843191
21
18.564827
0
LINE
8
0
10
16.843191
20
18.564827
11
17.216217
21
18.664780
0
LINE
8
0
10
17.216217
20
18.664780
11
17.489291
21
18.937854
0
LINE
8
0
10
17.489291
20
18.937854
11
17.589243
21
19.310880
0
LINE
8
0
10
17.589243
20
19.310880
11
17.589243
21
19.310880
0
LINE
8
0
10
0.231096
20
15.083280
11
0.211506
21
15.142280
0
LINE
8
0
10
0.211506
20
15.142280
11
3.733277
21
18.664080
0
LINE
8
0
10
3.733277
20
18.664080
11
15.032066
21
18.664080
0
LINE
8
0
10
15.032066
20
18.664080
11
18.553837
21
15.142280
0
LINE
8
0
10
18.553837
20
15.142280
11
18.534247
21
15.083280
0
LINE
8
0
10
18.534247
20
15.083280
11
18.534247
21
14.536180
0
LINE
8
0
10
18.534247
20
14.536180
11
18.633717
21
14.536180
0
LINE
8
0
10
18.633717
20
14.536180
11
18.633717
21
12.347780
0
LINE
8
0
10
18.633717
20
12.347780
11
18.534247
21
12.347780
0
LINE
8
0
10
18.534247
20
12.347780
11
18.534247
21
6.578280
0
LINE
8
0
10
18.534247
20
6.578280
11
18.633717
21
6.578280
0
LINE
8
0
10
18.633717
20
6.578280
11
18.633717
21
4.389880
0
LINE
8
0
10
18.633717
20
4.389880
11
18.534247
21
4.389880
0
LINE
8
0
10
18.534247
20
4.389880
11
18.534247
21
3.842680
0
LINE
8
0
10
18.534247
20
3.842680
11
18.553837
21
3.783680
0
LINE
8
0
10
18.553837
20
3.783680
11
15.032066
21
0.261880
0
LINE
8
0
10
15.032066
20
0.261880
11
3.733277
21
0.261880
0
LINE
8
0
10
3.733277
20
0.261880
11
0.211506
21
3.783680
0
LINE
8
0
10
0.211506
20
3.783680
11
0.231096
21
3.842680
0
LINE
8
0
10
0.231096
20
3.842680
11
0.231096
21
4.389880
0
LINE
8
0
10
0.231096
20
4.389880
11
0.131626
21
4.389880
0
LINE
8
0
10
0.131626
20
4.389880
11
0.131626
21
6.578280
0
LINE
8
0
10
0.131626
20
6.578280
11
0.231096
21
6.578280
0
LINE
8
0
10
0.231096
20
6.578280
11
0.231096
21
12.347780
0
LINE
8
0
10
0.231096
20
12.347780
11
0.131626
21
12.347780
0
LINE
8
0
10
0.131626
20
12.347780
11
0.131626
21
14.536180
0
LINE
8
0
10
0.131626
20
14.536180
11
0.231096
21
14.536180
0
LINE
8
0
10
0.231096
20
14.536180
11
0.231096
21
15.083280
0
LINE
8
0
10
18.715069
20
0.877480
11
18.496348
21
1.404640
0
LINE
8
0
10
18.496348
20
1.404640
11
17.969017
21
1.622946
0
LINE
8
0
10
17.969017
20
1.622946
11
17.441686
21
1.404640
0
LINE
8
0
10
17.441686
20
1.404640
11
17.222965
21
0.877480
0
LINE
8
0
10
17.222965
20
0.877480
11
17.441686
21
0.350320
0
LINE
8
0
10
17.441686
20
0.350320
11
17.969017
21
0.132014
0
LINE
8
0
10
17.969017
20
0.132014
11
18.496348
21
0.350320
0
LINE
8
0
10
18.496348
20
0.350320
11
18.715069
21
0.877480
0
LINE
8
0
10
18.715069
20
0.877480
11
18.715069
21
0.877480
 0 
ENDSEC
 0 
EOF