<?xml version="1.0" encoding="UTF-8" standalone="no"?>
<svg
   viewBox="0 0 18.846634 20.188108"
   width="18.846634mm"
   height="20.188108mm"
   version="1.1"
   id="svg8"
   sodipodi:docname="thumPSP.svg"
   inkscape:version="1.3 (0e150ed6c4, 2023-07-21)"
   xmlns:inkscape="http://www.inkscape.org/namespaces/inkscape"
   xmlns:sodipodi="http://sodipodi.sourceforge.net/DTD/sodipodi-0.dtd"
   xmlns="http://www.w3.org/2000/svg"
   xmlns:svg="http://www.w3.org/2000/svg">
  <sodipodi:namedview
     id="namedview8"
     pagecolor="#ffffff"
     bordercolor="#000000"
     borderopacity="0.25"
     inkscape:showpageshadow="2"
     inkscape:pageopacity="0.0"
     inkscape:pagecheckerboard="0"
     inkscape:deskcolor="#d1d1d1"
     inkscape:zoom="4.097053"
     inkscape:cx="41.3712"
     inkscape:cy="60.409275"
     inkscape:window-width="1920"
     inkscape:window-height="1009"
     inkscape:window-x="-8"
     inkscape:window-y="892"
     inkscape:window-maximized="1"
     inkscape:current-layer="g8"
     inkscape:document-units="mm" />
  <desc
     id="desc1">thumPSP.dxf - scale = 1.000000, origin = (0.000000, 0.000000), method = manual</desc>
  <defs
     id="defs4">
    <marker
       id="DistanceX"
       orient="auto"
       refX="0"
       refY="0"
       style="overflow:visible">
      <path
         d="M 3,-3 -3,3 M 0,-5 V 5"
         style="stroke:#000000;stroke-width:0.5"
         id="path1" />
    </marker>
    <pattern
       id="Hatch"
       patternUnits="userSpaceOnUse"
       width="8"
       height="8"
       x="0"
       y="0">
      <path
         d="M8 4 l-4,4"
         stroke="#000000"
         stroke-width="0.25"
         linecap="square"
         id="path2" />
      <path
         d="M6 2 l-4,4"
         stroke="#000000"
         stroke-width="0.25"
         linecap="square"
         id="path3" />
      <path
         d="M4 0 l-4,4"
         stroke="#000000"
         stroke-width="0.25"
         linecap="square"
         id="path4" />
    </pattern>
    <symbol
       id="*MODEL_SPACE" />
    <symbol
       id="*PAPER_SPACE" />
  </defs>
  <g
     inkscape:groupmode="layer"
     inkscape:label="0"
     id="g8"
     transform="translate(-36.35463,-83.285472)">
    <path
       d="m 53.943843,84.16312 a 0.7460525,0.7460525 0 0 0 -1.492105,0 0.7460525,0.7460525 0 0 0 1.492105,0 z"
       style="fill:none;stroke:#000000;stroke-width:0.263191"
       id="path5" />
    <path
       d="m 36.585696,88.39072 a 0.09947368,0.09947368 0 0 0 -0.01959,-0.059 l 3.521771,-3.5218 h 11.298789 l 3.521771,3.5218 a 0.09947368,0.09947368 0 0 0 -0.01959,0.059 v 0.5471 h 0.09947 v 2.1884 h -0.09947 v 5.7695 h 0.09947 v 2.1884 h -0.09947 v 0.5472 a 0.09947368,0.09947368 0 0 0 0.01959,0.059 l -3.521771,3.5218 H 40.087877 l -3.521771,-3.5218 a 0.09947368,0.09947368 0 0 0 0.01959,-0.059 v -0.5472 h -0.09947 v -2.1884 h 0.09947 v -5.7695 h -0.09947 v -2.1884 h 0.09947 z"
       style="fill:none;stroke:#000000;stroke-width:0.263191"
       id="path6" />
    <path
       d="m 55.069669,102.59652 a 0.74605223,0.74605223 0 0 0 -1.492104,0 0.74605223,0.74605223 0 0 0 1.492104,0 z"
       style="fill:none;stroke:#000000;stroke-width:0.263191"
       id="path7" />
  </g>
</svg>
