999
"DXF R12 Output" (www.mydxf.blogspot.com)
 0 
SECTION
 2 
HEADER
 9 
$ACADVER
 1 
AC1009
 9 
$EXTMIN
 10 
 0 
 20 
 0 
 9 
$EXTMAX
 10 
 8.5 
 20 
 11 
 0 
ENDSEC
 0 
SECTION
 2 
ENTITIES
0
LINE
8
Layer 1
10
0.793749
20
30.558349
11
-0.793749
21
28.970851
0
LINE
8
Layer 1
10
0.000000
20
31.087515
11
0.000000
21
28.441685
0
LINE
8
Layer 1
10
2.116664
20
28.706268
11
1.058332
21
27.647936
0
LINE
8
Layer 1
10
1.587498
20
29.235434
11
0.529166
21
28.177102
0
LINE
8
Layer 1
10
1.058332
20
29.764600
11
0.000000
21
28.706268
0
LINE
8
0
10
3.132312
20
1.633384
11
3.014435
21
2.217251
0
LINE
8
0
10
3.014435
20
2.217251
11
2.692973
21
2.694043
0
LINE
8
0
10
2.692973
20
2.694043
11
2.216181
21
3.015505
0
LINE
8
0
10
2.216181
20
3.015505
11
1.632314
21
3.133382
0
LINE
8
0
10
1.632314
20
3.133382
11
1.048447
21
3.015505
0
LINE
8
0
10
1.048447
20
3.015505
11
0.571655
21
2.694043
0
LINE
8
0
10
0.571655
20
2.694043
11
0.250193
21
2.217251
0
LINE
8
0
10
0.250193
20
2.217251
11
0.132316
21
1.633384
0
LINE
8
0
10
0.132316
20
1.633384
11
0.250193
21
1.049517
0
LINE
8
0
10
0.250193
20
1.049517
11
0.571655
21
0.572725
0
LINE
8
0
10
0.571655
20
0.572725
11
1.048447
21
0.251263
0
LINE
8
0
10
1.048447
20
0.251263
11
1.632314
21
0.133386
0
LINE
8
0
10
1.632314
20
0.133386
11
2.216181
21
0.251263
0
LINE
8
0
10
2.216181
20
0.251263
11
2.692973
21
0.572725
0
LINE
8
0
10
2.692973
20
0.572725
11
3.014435
21
1.049517
0
LINE
8
0
10
3.014435
20
1.049517
11
3.132312
21
1.633384
0
LINE
8
0
10
3.132312
20
1.633384
11
3.132312
21
1.633384
0
LINE
8
0
10
23.632286
20
28.133356
11
23.431325
21
28.883355
0
LINE
8
0
10
23.431325
20
28.883355
11
22.882287
21
29.432392
0
LINE
8
0
10
22.882287
20
29.432392
11
22.132288
21
29.633354
0
LINE
8
0
10
22.132288
20
29.633354
11
21.382289
21
29.432392
0
LINE
8
0
10
21.382289
20
29.432392
11
20.833252
21
28.883355
0
LINE
8
0
10
20.833252
20
28.883355
11
20.632290
21
28.133356
0
LINE
8
0
10
20.632290
20
28.133356
11
20.833252
21
27.383357
0
LINE
8
0
10
20.833252
20
27.383357
11
21.382289
21
26.834320
0
LINE
8
0
10
21.382289
20
26.834320
11
22.132288
21
26.633358
0
LINE
8
0
10
22.132288
20
26.633358
11
22.882287
21
26.834320
0
LINE
8
0
10
22.882287
20
26.834320
11
23.431325
21
27.383357
0
LINE
8
0
10
23.431325
20
27.383357
11
23.632286
21
28.133356
0
LINE
8
0
10
23.632286
20
28.133356
11
23.632286
21
28.133356
0
LINE
8
0
10
25.382284
20
15.633370
11
25.128329
21
18.152553
0
LINE
8
0
10
25.128329
20
18.152553
11
24.399973
21
20.498928
0
LINE
8
0
10
24.399973
20
20.498928
11
23.247483
21
22.622230
0
LINE
8
0
10
23.247483
20
22.622230
11
21.721123
21
24.472194
0
LINE
8
0
10
21.721123
20
24.472194
11
19.871160
21
25.998553
0
LINE
8
0
10
19.871160
20
25.998553
11
17.747858
21
27.151043
0
LINE
8
0
10
17.747858
20
27.151043
11
15.401483
21
27.879399
0
LINE
8
0
10
15.401483
20
27.879399
11
12.882300
21
28.133354
0
LINE
8
0
10
12.882300
20
28.133354
11
10.363117
21
27.879399
0
LINE
8
0
10
10.363117
20
27.879399
11
8.016742
21
27.151043
0
LINE
8
0
10
8.016742
20
27.151043
11
5.893440
21
25.998553
0
LINE
8
0
10
5.893440
20
25.998553
11
4.043477
21
24.472194
0
LINE
8
0
10
4.043477
20
24.472194
11
2.517117
21
22.622230
0
LINE
8
0
10
2.517117
20
22.622230
11
1.364627
21
20.498928
0
LINE
8
0
10
1.364627
20
20.498928
11
0.636271
21
18.152553
0
LINE
8
0
10
0.636271
20
18.152553
11
0.382316
21
15.633370
0
LINE
8
0
10
0.382316
20
15.633370
11
0.636271
21
13.114187
0
LINE
8
0
10
0.636271
20
13.114187
11
1.364627
21
10.767812
0
LINE
8
0
10
1.364627
20
10.767812
11
2.517117
21
8.644510
0
LINE
8
0
10
2.517117
20
8.644510
11
4.043477
21
6.794547
0
LINE
8
0
10
4.043477
20
6.794547
11
5.893440
21
5.268187
0
LINE
8
0
10
5.893440
20
5.268187
11
8.016742
21
4.115697
0
LINE
8
0
10
8.016742
20
4.115697
11
10.363117
21
3.387342
0
LINE
8
0
10
10.363117
20
3.387342
11
12.882300
21
3.133386
0
LINE
8
0
10
12.882300
20
3.133386
11
15.401483
21
3.387342
0
LINE
8
0
10
15.401483
20
3.387342
11
17.747858
21
4.115697
0
LINE
8
0
10
17.747858
20
4.115697
11
19.871160
21
5.268187
0
LINE
8
0
10
19.871160
20
5.268187
11
21.721123
21
6.794547
0
LINE
8
0
10
21.721123
20
6.794547
11
23.247483
21
8.644510
0
LINE
8
0
10
23.247483
20
8.644510
11
24.399973
21
10.767812
0
LINE
8
0
10
24.399973
20
10.767812
11
25.128329
21
13.114187
0
LINE
8
0
10
25.128329
20
13.114187
11
25.382284
21
15.633370
0
LINE
8
0
10
25.382284
20
15.633370
11
25.382284
21
15.633370
0
LINE
8
0
10
23.632286
20
1.633384
11
23.431325
21
2.383383
0
LINE
8
0
10
23.431325
20
2.383383
11
22.882287
21
2.932420
0
LINE
8
0
10
22.882287
20
2.932420
11
22.132288
21
3.133382
0
LINE
8
0
10
22.132288
20
3.133382
11
21.382289
21
2.932420
0
LINE
8
0
10
21.382289
20
2.932420
11
20.833252
21
2.383383
0
LINE
8
0
10
20.833252
20
2.383383
11
20.632290
21
1.633384
0
LINE
8
0
10
20.632290
20
1.633384
11
20.833252
21
0.883385
0
LINE
8
0
10
20.833252
20
0.883385
11
21.382289
21
0.334348
0
LINE
8
0
10
21.382289
20
0.334348
11
22.132288
21
0.133386
0
LINE
8
0
10
22.132288
20
0.133386
11
22.882287
21
0.334348
0
LINE
8
0
10
22.882287
20
0.334348
11
23.431325
21
0.883385
0
LINE
8
0
10
23.431325
20
0.883385
11
23.632286
21
1.633384
0
LINE
8
0
10
23.632286
20
1.633384
11
23.632286
21
1.633384
0
LINE
8
0
10
3.132312
20
28.133356
11
3.014435
21
28.717223
0
LINE
8
0
10
3.014435
20
28.717223
11
2.692973
21
29.194015
0
LINE
8
0
10
2.692973
20
29.194015
11
2.216181
21
29.515477
0
LINE
8
0
10
2.216181
20
29.515477
11
1.632314
21
29.633354
0
LINE
8
0
10
1.632314
20
29.633354
11
1.048447
21
29.515477
0
LINE
8
0
10
1.048447
20
29.515477
11
0.571655
21
29.194015
0
LINE
8
0
10
0.571655
20
29.194015
11
0.250193
21
28.717223
0
LINE
8
0
10
0.250193
20
28.717223
11
0.132316
21
28.133356
0
LINE
8
0
10
0.132316
20
28.133356
11
0.250193
21
27.549489
0
LINE
8
0
10
0.250193
20
27.549489
11
0.571655
21
27.072697
0
LINE
8
0
10
0.571655
20
27.072697
11
1.048447
21
26.751235
0
LINE
8
0
10
1.048447
20
26.751235
11
1.632314
21
26.633358
0
LINE
8
0
10
1.632314
20
26.633358
11
2.216181
21
26.751235
0
LINE
8
0
10
2.216181
20
26.751235
11
2.692973
21
27.072697
0
LINE
8
0
10
2.692973
20
27.072697
11
3.014435
21
27.549489
0
LINE
8
0
10
3.014435
20
27.549489
11
3.132312
21
28.133356
0
LINE
8
0
10
3.132312
20
28.133356
11
3.132312
21
28.133356
 0 
ENDSEC
 0 
EOF